#!OML:ASF H:\charlestonDancing\Project 1\Capture day 1\Session 1\femaleDancer.ASF
:FULLY-SPECIFIED
:DEGREES
1306
root -15.0404 17.6271 3.23502 501.362 -88.0976 -500.27
lowerback 5.97515 -0.385597 3.20915
upperback -2.30507 -0.310139 -1.04302
thorax -5.78217 -0.294928 -2.85782
lowerneck -1.84324 -1.17228 1.38486
upperneck -0.0260813 -1.59964 0.436202
head 0.283281 -0.799261 -0.105001
rclavicle -8.63471e-016 -7.95139e-016
rhumerus -305.181 254.908 -82.9642
rradius 13.6894
rwrist 109.627
rhand -22.1584 -29.1432
rfingers 7.12502
rthumb 184.256 120.92
lclavicle -8.63471e-016 -7.95139e-016
lhumerus -31.3232 46.6584 6.9944
lradius 12.7109
lwrist -38.3035
lhand -14.7233 22.3672
lfingers 7.12502
lthumb 11.4316 52.0356
rfemur -9.41102 2.71118 14.3212
rtibia 33.1177
rfoot -20.7337 -11.4578
rtoes -20.9756
lfemur -11.0901 -2.74587 -14.3866
ltibia 35.3926
lfoot -17.4216 -10.7721
ltoes -20.1554
1307
root -15.0349 17.6267 3.24683 496.277 -87.9873 -495.258
lowerback 6.12122 -0.408341 3.42034
upperback -2.33315 -0.313606 -0.974051
thorax -5.89726 -0.305577 -2.90451
lowerneck -1.89772 -1.01753 1.54305
upperneck 0.161104 -1.39876 0.391969
head 0.348815 -0.697477 -0.143856
rclavicle -2.39163e-015 2.78299e-015
rhumerus -304.143 255.047 -84.0084
rradius 13.699
rwrist 109.456
rhand -22.0395 -29.0019
rfingers 7.12502
rthumb 184.371 121.063
lclavicle -2.39163e-015 2.78299e-015
lhumerus -31.8665 48.1064 6.02158
lradius 12.5453
lwrist -39.969
lhand -14.8184 22.2048
lfingers 7.12502
lthumb 11.3399 51.8782
rfemur -9.28739 2.50573 14.4775
rtibia 32.9692
rfoot -20.6074 -11.346
rtoes -21.8599
lfemur -11.0559 -2.71135 -14.1995
ltibia 35.4284
lfoot -17.3857 -10.7895
ltoes -20.0621
1308
root -15.0313 17.6306 3.24949 496.544 -87.801 -495.535
lowerback 6.15446 -0.362129 3.45713
upperback -2.34277 -0.245378 -0.938694
thorax -5.92126 -0.273123 -2.89593
lowerneck -1.88172 -0.861352 1.78241
upperneck 0.183034 -1.19584 0.349322
head 0.35265 -0.596045 -0.194096
rclavicle -5.29885e-015 2.78299e-015
rhumerus -300.893 255.406 -87.4034
rradius 13.6902
rwrist 108.603
rhand -21.9352 -28.9345
rfingers 7.12502
rthumb 184.471 121.133
lclavicle -5.29885e-015 2.78299e-015
lhumerus -31.9386 48.6316 5.69073
lradius 12.53
lwrist -40.5401
lhand -14.8533 22.0854
lfingers 7.12502
lthumb 11.3063 51.7607
rfemur -9.27557 2.77373 14.6308
rtibia 32.8571
rfoot -20.3932 -11.5953
rtoes -22.9181
lfemur -11.0399 -2.63627 -14.0664
ltibia 35.4243
lfoot -17.3936 -10.7266
ltoes -20.1043
1309
root -15.0345 17.6334 3.25194 499.046 -87.769 -498.005
lowerback 6.09192 -0.306097 3.34272
upperback -2.37444 -0.182812 -0.946152
thorax -5.91312 -0.238523 -2.84616
lowerneck -1.79155 -0.74982 2.01492
upperneck 0.129971 -1.04926 0.254719
head 0.321461 -0.523694 -0.258812
rclavicle 4.53478e-015 3.57812e-015
rhumerus -299.486 255.466 -88.8387
rradius 13.6879
rwrist 108.292
rhand -21.945 -28.9708
rfingers 7.12502
rthumb 184.462 121.096
lclavicle 4.53478e-015 3.57812e-015
lhumerus -31.6507 48.5349 5.86288
lradius 12.5533
lwrist -40.5118
lhand -15.0831 22.015
lfingers 7.12502
lthumb 11.0846 51.7023
rfemur -9.29272 2.8912 14.5772
rtibia 32.8128
rfoot -20.3 -11.7381
rtoes -23.4449
lfemur -11.0176 -2.66173 -14.1366
ltibia 35.3709
lfoot -17.4346 -10.6558
ltoes -19.9752
1310
root -15.0407 17.6358 3.25575 504.756 -87.8814 -503.636
lowerback 5.99241 -0.257592 3.09054
upperback -2.44149 -0.146556 -1.01356
thorax -5.92258 -0.213966 -2.77846
lowerneck -1.76047 -0.637368 2.14817
upperneck 0.158183 -0.901761 0.244481
head 0.325793 -0.44977 -0.282591
rclavicle -2.62768e-015 -7.95139e-016
rhumerus -302.904 254.956 -85.2712
rradius 13.7245
rwrist 109.403
rhand -22.0604 -28.8731
rfingers 7.12502
rthumb 184.35 121.192
lclavicle -2.62768e-015 -7.95139e-016
lhumerus -31.872 49.4031 5.28543
lradius 12.4792
lwrist -41.6472
lhand -15.1395 21.9343
lfingers 7.12502
lthumb 11.0302 51.6245
rfemur -9.37108 2.86492 14.2849
rtibia 32.829
rfoot -20.3824 -11.646
rtoes -23.0195
lfemur -11.009 -2.76779 -14.4391
ltibia 35.2723
lfoot -17.4715 -10.504
ltoes -19.7382
1311
root -15.0425 17.6373 3.25782 511.863 -88.0271 -510.635
lowerback 5.9161 -0.234555 2.80705
upperback -2.50738 -0.14775 -1.10853
thorax -5.9469 -0.207492 -2.71781
lowerneck -1.85618 -0.49673 2.24547
upperneck 0.244779 -0.720463 0.288546
head 0.369497 -0.358075 -0.284564
rclavicle -3.57812e-015 8.34896e-015
rhumerus -306.26 254.427 -81.8052
rradius 13.7535
rwrist 110.492
rhand -22.1221 -28.8104
rfingers 7.12502
rthumb 184.291 121.253
lclavicle -3.57812e-015 8.34896e-015
lhumerus -33.1414 52.0104 3.25356
lradius 12.2782
lwrist -44.6271
lhand -15.0482 21.6519
lfingers 7.12502
lthumb 11.1182 51.3374
rfemur -9.49945 2.79692 13.9466
rtibia 32.8817
rfoot -20.4984 -11.5191
rtoes -22.3991
lfemur -11.0595 -2.91098 -14.7892
ltibia 35.1716
lfoot -17.469 -10.3285
ltoes -19.4692
